<svg width="37" height="32" viewBox="0 0 37 32" fill="none" xmlns="http://www.w3.org/2000/svg">
<path d="M9.011 15.3079C7.68983 14.0561 2.40683 13.6508 0.819019 13.5567C0.617047 13.5551 0.399683 13.6199 0.245548 13.7648C0.0898237 13.9113 0.00195312 14.1147 0.00195312 14.3275V28.2018C0.00195312 28.6273 0.347293 28.9726 0.772771 28.9726H5.39754C5.73052 28.9726 6.0265 28.7583 6.13136 28.4408C6.24387 28.0954 8.90007 19.9435 9.24845 15.9354C9.26998 15.701 9.18059 15.4698 9.011 15.3079Z" fill="#C74C4C"/>
<path d="M23.4953 17.2733C23.6402 17.4228 23.8407 17.5092 24.0503 17.5092C24.2599 17.5092 24.4604 17.4228 24.6053 17.2733L31.8415 9.75342C32.7819 8.77911 33.2998 7.48266 33.2998 5.96263C33.2998 3.32037 31.5069 1.0249 29.1298 0.622546C27.0039 0.260297 25.0754 1.29465 24.0503 2.97041C23.0251 1.29314 21.0951 0.258779 18.9708 0.622546C16.5937 1.0249 14.8008 3.3203 14.8008 6.106C14.8008 7.48418 15.3188 8.77911 16.2576 9.75342L23.4953 17.2733Z" fill="#C74C4C"/>
<path d="M36.9191 24.7732C35.8693 22.6751 33.4352 21.5528 31.1582 22.1232L27.6726 22.9942C27.725 23.3472 27.7513 23.7172 27.7513 24.1041V24.3477C27.7513 25.4099 27.0298 26.3333 25.9985 26.5907L23.9235 27.1087C23.3777 27.2459 22.812 27.3153 22.2416 27.3153C21.7806 27.3153 21.3228 27.2706 20.8819 27.1812L14.193 25.8431C13.7752 25.7599 13.5039 25.3544 13.5871 24.9366C13.6719 24.5173 14.0851 24.2507 14.4936 24.3323L21.1841 25.6704C21.9518 25.8245 22.7858 25.8045 23.5473 25.6149L25.6239 25.0969C25.9692 25.0091 26.2097 24.7023 26.2097 24.3477V24.1041C26.2097 23.822 26.1912 23.5584 26.1588 23.3055C26.1496 23.2331 26.1326 23.1683 26.1203 23.0974C26.0895 22.9186 26.0556 22.7428 26.0062 22.5779C25.9846 22.5055 25.9584 22.4392 25.9337 22.3698C25.8797 22.2172 25.8196 22.0677 25.7472 21.9274C25.7148 21.8657 25.6794 21.8056 25.644 21.7455C25.5638 21.6083 25.4744 21.4772 25.3742 21.3524C25.3341 21.3015 25.2925 21.2506 25.2478 21.2029C25.1368 21.078 25.0135 20.9609 24.8809 20.8499C24.8347 20.8114 24.79 20.7713 24.7407 20.7327C24.5927 20.6202 24.4293 20.5154 24.2582 20.4167C24.2119 20.3905 24.1688 20.3597 24.1194 20.335C23.9206 20.2286 23.7047 20.1346 23.4751 20.0452C23.4412 20.0328 23.4119 20.0174 23.378 20.0035C23.1066 19.9033 22.8153 19.8139 22.5024 19.7353L11.4538 17.2796C11.2472 17.2348 11.0345 17.2749 10.8587 17.3921C10.683 17.5092 10.5643 17.6927 10.5273 17.8993C9.97229 21.058 8.76833 25.157 8.10078 27.3199C7.97743 27.7208 8.19638 28.1462 8.59252 28.2788L17.4551 31.234C18.6421 31.6826 19.564 32.0002 20.6523 32.0002C20.6523 32.0002 20.6523 32.0002 20.6538 32.0002C22.2355 32.0002 24.0268 31.3296 28.0673 29.6739L36.5461 25.8199C36.7357 25.7336 36.8837 25.5733 36.9546 25.3759C37.0271 25.1787 37.0132 24.9613 36.9191 24.7732Z" fill="#C74C4C"/>
</svg>
